<?xml version="1.0" encoding="utf-8"?>
<!-- Generator: Adobe Illustrator 16.0.0, SVG Export Plug-In . SVG Version: 6.00 Build 0)  -->
<!DOCTYPE svg PUBLIC "-//W3C//DTD SVG 1.1//EN" "http://www.w3.org/Graphics/SVG/1.1/DTD/svg11.dtd">
<svg version="1.1" id="Layer_1" xmlns="http://www.w3.org/2000/svg" xmlns:xlink="http://www.w3.org/1999/xlink" x="0px" y="0px"
	 width="110px" height="25px" viewBox="0 0 110 25" enable-background="new 0 0 110 25" xml:space="preserve">
<g>
	<g>
		<path fill="#171717" d="M0.696,19.832c1.235,0.76,3.04,1.394,4.939,1.394c2.818,0,4.464-1.488,4.464-3.642
			c0-1.994-1.14-3.136-4.021-4.242c-3.483-1.235-5.636-3.04-5.636-6.048c0-3.325,2.754-5.794,6.902-5.794
			c2.185,0,3.768,0.506,4.717,1.045l-0.76,2.248c-0.696-0.38-2.121-1.013-4.053-1.013c-2.913,0-4.021,1.742-4.021,3.198
			c0,1.995,1.298,2.977,4.243,4.116c3.609,1.393,5.446,3.134,5.446,6.269c0,3.293-2.438,6.144-7.473,6.144
			c-2.058,0-4.306-0.603-5.445-1.362L0.696,19.832z"/>
		<path fill="#171717" d="M29.413,19.009c0,1.583,0.031,2.977,0.126,4.179h-2.469l-0.159-2.501h-0.063
			c-0.729,1.236-2.343,2.851-5.066,2.851c-2.407,0-5.288-1.33-5.288-6.714V7.864h2.786v8.486c0,2.912,0.887,4.876,3.42,4.876
			c1.868,0,3.166-1.299,3.673-2.532c0.158-0.413,0.253-0.918,0.253-1.426V7.864h2.787V19.009z"/>
		<path fill="#171717" d="M34.128,2.133c1.203-0.253,3.103-0.443,5.035-0.443c2.754,0,4.527,0.475,5.857,1.552
			c1.108,0.823,1.773,2.09,1.773,3.768c0,2.058-1.361,3.863-3.609,4.686v0.063c2.026,0.506,4.401,2.185,4.401,5.351
			c0,1.836-0.728,3.229-1.805,4.274c-1.488,1.362-3.895,1.994-7.377,1.994c-1.899,0-3.356-0.127-4.274-0.253V2.133z M36.883,10.872
			h2.502c2.913,0,4.623-1.52,4.623-3.578c0-2.501-1.9-3.483-4.687-3.483c-1.266,0-1.994,0.096-2.438,0.19V10.872z M36.883,21.1
			c0.539,0.095,1.33,0.126,2.312,0.126c2.85,0,5.478-1.044,5.478-4.147c0-2.914-2.501-4.116-5.509-4.116h-2.28V21.1z"/>
		<path fill="#D00355" d="M65.187,15.4c0,5.667-3.927,8.137-7.63,8.137c-4.147,0-7.346-3.04-7.346-7.884
			c0-5.13,3.356-8.138,7.599-8.138C62.212,7.516,65.187,10.713,65.187,15.4z M53.029,15.558c0,3.356,1.931,5.89,4.654,5.89
			c2.659,0,4.655-2.502,4.655-5.952c0-2.597-1.299-5.89-4.592-5.89C54.454,9.605,53.029,12.645,53.029,15.558z"/>
		<path fill="#D00355" d="M82.568,15.4c0,5.667-3.927,8.137-7.632,8.137c-4.147,0-7.346-3.04-7.346-7.884
			c0-5.13,3.356-8.138,7.601-8.138C79.592,7.516,82.568,10.713,82.568,15.4z M70.41,15.558c0,3.356,1.931,5.89,4.652,5.89
			c2.661,0,4.655-2.502,4.655-5.952c0-2.597-1.297-5.89-4.59-5.89C71.833,9.605,70.41,12.645,70.41,15.558z"/>
		<path fill="#171717" d="M88.834,14.893h0.065c0.379-0.539,0.918-1.202,1.36-1.74l4.496-5.289h3.356l-5.92,6.3l6.743,9.023h-3.388
			l-5.288-7.345l-1.426,1.583v5.762H86.08V0.708h2.754V14.893z"/>
		<path fill="#171717" d="M100.548,20.339c0.823,0.537,2.28,1.108,3.674,1.108c2.025,0,2.976-1.013,2.976-2.28
			c0-1.329-0.792-2.058-2.849-2.817c-2.756-0.981-4.053-2.501-4.053-4.338c0-2.47,1.993-4.496,5.286-4.496
			c1.552,0,2.914,0.443,3.769,0.95l-0.696,2.026c-0.603-0.38-1.71-0.886-3.136-0.886c-1.646,0-2.563,0.95-2.563,2.089
			c0,1.268,0.918,1.836,2.913,2.596c2.659,1.015,4.021,2.343,4.021,4.623c0,2.69-2.091,4.592-5.73,4.592
			c-1.679,0-3.229-0.413-4.308-1.046L100.548,20.339z"/>
	</g>
	<g>
		<path fill="#D00355" d="M70.306,14.229v2.059h-7.822v-2.059H70.306z"/>
	</g>
</g>
</svg>
